<svg id="visual" viewBox="0 0 960 540" width="960" height="540" xmlns="http://www.w3.org/2000/svg" xmlns:xlink="http://www.w3.org/1999/xlink" version="1.1"><path d="M0 98L240 168L480 66L720 66L960 158L960 0L720 0L480 0L240 0L0 0Z" fill="#dbdbdb"></path><path d="M0 222L240 239L480 125L720 179L960 260L960 156L720 64L480 64L240 166L0 96Z" fill="#e4e6e6"></path><path d="M0 330L240 384L480 417L720 325L960 379L960 258L720 177L480 123L240 237L0 220Z" fill="#eef0f2"></path><path d="M0 541L240 541L480 541L720 541L960 541L960 377L720 323L480 415L240 382L0 328Z" fill="#f7fbfd"></path></svg>