<?xml version="1.0" standalone="no"?>
<!DOCTYPE svg PUBLIC "-//W3C//DTD SVG 20010904//EN"
 "http://www.w3.org/TR/2001/REC-SVG-20010904/DTD/svg10.dtd">
<svg version="1.0" xmlns="http://www.w3.org/2000/svg"
 width="306.000000pt" height="165.000000pt" viewBox="0 0 306.000000 165.000000"
 preserveAspectRatio="xMidYMid meet">

<g transform="translate(0.000000,165.000000) scale(0.100000,-0.100000)"
fill="#000000" stroke="none">
<path d="M886 1094 c-32 -31 -8 -84 38 -84 30 0 46 18 46 52 0 43 -53 64 -84
32z"/>
<path d="M1410 865 l0 -245 40 0 c33 0 40 3 40 20 0 20 0 20 33 0 73 -45 176
-17 221 60 32 54 29 144 -6 197 -46 70 -147 95 -215 53 l-33 -20 0 90 0 90
-40 0 -40 0 0 -245z m239 9 c39 -32 49 -80 26 -127 -30 -63 -107 -77 -156 -28
-24 24 -29 38 -29 76 0 92 90 137 159 79z"/>
<path d="M170 959 c-33 -13 -68 -47 -87 -82 -17 -35 -19 -127 -2 -159 34 -68
86 -98 166 -98 68 0 113 23 143 72 28 47 26 58 -14 58 -25 0 -43 -8 -64 -30
-65 -65 -162 -20 -162 75 0 95 98 141 160 75 21 -23 37 -30 64 -30 24 0 36 5
36 14 0 25 -45 81 -80 98 -38 20 -120 23 -160 7z"/>
<path d="M560 963 c-104 -39 -145 -187 -76 -277 37 -48 74 -66 141 -66 65 0
100 16 143 64 74 84 41 220 -65 275 -22 11 -116 14 -143 4z m128 -88 c36 -31
48 -73 32 -119 -23 -70 -108 -89 -161 -37 -24 24 -29 38 -29 76 0 92 90 137
158 80z"/>
<path d="M830 935 c0 -31 3 -35 25 -35 l25 0 0 -140 0 -140 40 0 40 0 0 175 0
175 -65 0 -65 0 0 -35z"/>
<path d="M1030 795 l0 -175 40 0 40 0 0 115 c0 110 1 117 25 140 15 16 36 25
55 25 19 0 40 -9 55 -25 24 -23 25 -30 25 -140 l0 -115 40 0 40 0 0 120 c0
134 -11 173 -55 208 -38 30 -121 31 -159 1 l-26 -20 0 20 c0 18 -6 21 -40 21
l-40 0 0 -175z"/>
<path d="M1870 948 c-19 -13 -40 -38 -47 -55 l-13 -33 40 0 c29 0 42 5 50 20
22 42 120 33 120 -11 0 -23 -23 -34 -102 -49 -95 -19 -131 -65 -108 -136 15
-43 53 -64 119 -64 38 0 56 6 77 23 l27 23 23 -23 c14 -14 35 -23 52 -23 27 0
30 4 34 35 3 28 0 35 -13 35 -14 0 -17 15 -21 98 -5 108 -17 141 -58 165 -43
26 -139 23 -180 -5z m142 -227 c-25 -34 -64 -48 -99 -35 -31 11 -42 44 -20 62
8 7 38 16 67 22 30 6 56 13 59 16 16 16 10 -43 -7 -65z"/>
<path d="M2244 960 c-32 -13 -64 -59 -64 -92 0 -60 36 -90 125 -103 64 -10 85
-21 85 -45 0 -44 -86 -55 -126 -15 -17 17 -36 25 -59 25 -45 0 -45 -19 -1 -68
l34 -37 87 0 c86 0 87 0 117 34 26 29 30 39 25 74 -8 58 -33 78 -124 96 -62
13 -79 20 -81 35 -9 47 74 62 112 21 24 -25 86 -36 86 -15 0 25 -32 71 -60 85
-31 16 -121 19 -156 5z"/>
<path d="M2605 956 c-64 -28 -95 -84 -95 -170 0 -61 25 -107 79 -143 41 -27
135 -32 180 -8 30 15 81 70 81 86 0 18 -79 10 -100 -11 -31 -31 -100 -27 -134
6 -14 15 -26 35 -26 46 0 18 7 19 131 16 l131 -3 -4 51 c-5 60 -34 105 -82
128 -41 19 -120 20 -161 2z m142 -78 c43 -40 31 -48 -67 -48 l-91 0 16 29 c17
34 27 39 79 40 28 1 47 -6 63 -21z"/>
</g>
</svg>
