<?xml version="1.0" encoding="UTF-8" standalone="no"?>
<!-- Created with Inkscape (http://www.inkscape.org/) -->

<svg
   width="512"
   height="512"
   viewBox="0 0 512 512"
   version="1.1"
   id="svg1"
   xmlns:inkscape="http://www.inkscape.org/namespaces/inkscape"
   xmlns:sodipodi="http://sodipodi.sourceforge.net/DTD/sodipodi-0.dtd"
   xmlns="http://www.w3.org/2000/svg"
   xmlns:svg="http://www.w3.org/2000/svg">
  <sodipodi:namedview
     id="namedview1"
     pagecolor="#ffffff"
     bordercolor="#000000"
     borderopacity="0.25"
     inkscape:showpageshadow="2"
     inkscape:pageopacity="0.0"
     inkscape:pagecheckerboard="0"
     inkscape:deskcolor="#d1d1d1"
     inkscape:document-units="px"
     inkscape:export-bgcolor="#ffffff00">
    <inkscape:page
       x="0"
       y="0"
       width="512"
       height="512"
       id="page2"
       margin="0"
       bleed="0" />
  </sodipodi:namedview>
  <defs
     id="defs1">
    <inkscape:path-effect
       effect="fillet_chamfer"
       id="path-effect5"
       is_visible="true"
       lpeversion="1"
       nodesatellites_param="F,0,0,1,0,5,0,1 @ F,0,0,1,0,151.18644,0,1 @ F,0,0,1,0,141.86441,0,1 @ F,0,0,1,0,151.18644,0,1"
       radius="6"
       unit="px"
       method="auto"
       mode="F"
       chamfer_steps="1"
       flexible="false"
       use_knot_distance="true"
       apply_no_radius="true"
       apply_with_radius="true"
       only_selected="true"
       hide_knots="false" />
  </defs>
  <g
     inkscape:label="Layer 1"
     inkscape:groupmode="layer"
     id="layer1">
    <path
       id="rect1"
       style="fill:#2a8e9e;fill-opacity:1"
       d="M 72.832031,0 C 32.483564,0 0,32.483564 0,72.832031 V 439.16797 C 0,479.51644 32.483564,512 72.832031,512 H 439.16797 C 479.51644,512 512,479.51644 512,439.16797 V 72.832031 C 512,32.483564 479.51644,0 439.16797,0 Z M 111,106 H 254.81445 A 151.18644,151.18644 0 0 1 406,257.18555 v 6.94922 A 141.86441,141.86441 0 0 1 264.13477,406 h -6.94922 A 151.18644,151.18644 0 0 1 106,254.81445 V 111 a 5,5 0 0 1 5,-5 z" />
    <path
       id="path3"
       style="fill:#2a8e9e;fill-opacity:1;stroke-width:0.983208"
       d="M 111,106 H 254.81356 A 151.18644,151.18644 45 0 1 406,257.18644 v 6.94915 A 141.86441,141.86441 135 0 1 264.13559,406 h -6.94915 A 151.18644,151.18644 45 0 1 106,254.81356 V 111 a 5,5 135 0 1 5,-5 z"
       inkscape:path-effect="#path-effect5"
       inkscape:original-d="m 106,106 c 0,0 300,0 300,0 0,0 0,300 0,300 0,0 -300,0 -300,0 z"
       transform="matrix(0.38135593,0,0,0.38135593,158.37288,158.37288)" />
  </g>
</svg>
