<?xml version="1.0" standalone="no"?>
<!DOCTYPE svg PUBLIC "-//W3C//DTD SVG 20010904//EN"
 "http://www.w3.org/TR/2001/REC-SVG-20010904/DTD/svg10.dtd">
<svg version="1.0" xmlns="http://www.w3.org/2000/svg"
 width="297.000000pt" height="170.000000pt" viewBox="0 0 297.000000 170.000000"
 preserveAspectRatio="xMidYMid meet">

<g transform="translate(0.000000,170.000000) scale(0.100000,-0.100000)"
fill="#000000" stroke="none">
<path d="M228 1149 c-21 -12 -24 -69 -6 -87 22 -22 66 -14 85 14 15 24 15 29
2 53 -16 28 -53 38 -81 20z"/>
<path d="M1098 1073 c-2 -18 -14 -35 -35 -48 -39 -24 -47 -75 -13 -75 18 0 20
-7 20 -85 0 -94 12 -129 56 -164 18 -14 41 -21 70 -21 l44 0 0 40 c0 31 -3 38
-15 34 -8 -4 -26 1 -40 10 -23 15 -25 22 -25 101 l0 85 45 0 45 0 0 40 0 40
-45 0 c-45 0 -45 0 -45 35 0 32 -2 35 -29 35 -25 0 -30 -4 -33 -27z"/>
<path d="M2578 1061 c-24 -51 -26 -277 -3 -321 19 -36 62 -60 110 -60 34 0 35
1 35 40 0 30 -3 38 -14 34 -8 -3 -24 -1 -35 6 -19 10 -21 20 -21 100 l0 90 45
0 45 0 0 40 0 40 -45 0 c-45 0 -45 0 -45 35 0 32 -3 35 -27 35 -23 0 -31 -8
-45 -39z"/>
<path d="M210 855 l0 -175 50 0 50 0 0 175 0 175 -50 0 -50 0 0 -175z"/>
<path d="M360 855 l0 -175 50 0 50 0 0 125 c0 113 2 125 19 135 34 18 68 12
90 -16 18 -23 21 -41 21 -135 l0 -109 45 0 45 0 0 130 c0 95 -4 139 -15 159
-14 28 -68 61 -100 61 -25 0 -72 -27 -89 -52 -16 -22 -16 -22 -16 15 l0 37
-50 0 -50 0 0 -175z"/>
<path d="M778 1015 c-35 -20 -48 -44 -48 -93 0 -59 23 -81 100 -93 71 -11 90
-22 90 -50 0 -38 -66 -52 -95 -19 -13 14 -31 20 -62 20 -49 0 -55 -13 -24 -52
39 -49 148 -62 212 -26 100 56 55 188 -64 188 -45 0 -77 15 -77 35 0 32 62 45
91 19 11 -10 31 -14 58 -12 39 3 40 4 28 27 -6 13 -24 33 -39 44 -36 27 -132
34 -170 12z"/>
<path d="M1353 1015 c-28 -12 -73 -66 -73 -86 0 -4 20 -9 44 -10 34 -3 47 0
55 13 22 36 102 12 88 -26 -5 -13 -21 -20 -114 -45 -74 -20 -96 -99 -44 -152
43 -43 93 -41 137 7 l34 35 0 -35 c0 -35 1 -36 40 -36 l40 0 0 139 c0 133 -1
139 -25 165 -43 47 -117 60 -182 31z m107 -255 c-9 -17 -19 -20 -48 -18 -34 3
-37 6 -37 33 0 26 6 31 45 46 l45 17 3 -29 c2 -15 -2 -38 -8 -49z"/>
<path d="M1689 1007 c-96 -64 -114 -182 -42 -268 75 -88 223 -75 280 26 13 22
23 43 23 48 0 4 -18 7 -41 7 -33 0 -46 -6 -73 -35 -42 -44 -77 -46 -117 -6
-23 23 -29 38 -29 71 0 33 6 48 29 71 38 38 74 38 113 -1 24 -24 38 -30 74
-30 42 0 45 2 39 23 -10 34 -38 70 -75 95 -46 31 -134 31 -181 -1z"/>
<path d="M2054 1011 c-37 -23 -64 -58 -64 -83 0 -28 81 -25 98 3 10 15 21 19
45 17 26 -2 33 -8 35 -30 3 -29 2 -30 -83 -48 -69 -15 -95 -42 -95 -97 0 -57
33 -93 85 -93 46 0 71 13 89 48 l15 27 1 -37 0 -38 45 0 45 0 0 128 c0 137 -7
162 -52 195 -40 30 -124 34 -164 8z m105 -257 c-15 -18 -63 -18 -79 1 -19 23
-5 44 42 64 l43 18 3 -34 c2 -19 -2 -41 -9 -49z"/>
<path d="M2310 855 l0 -175 50 0 50 0 0 104 c0 57 3 112 6 121 8 19 55 45 84
45 17 0 20 6 20 40 0 37 -2 40 -28 40 -33 0 -59 -25 -72 -66 -7 -26 -8 -24 -9
19 l-1 47 -50 0 -50 0 0 -175z"/>
</g>
</svg>
