<?xml version="1.0" standalone="no"?>
<!DOCTYPE svg PUBLIC "-//W3C//DTD SVG 20010904//EN"
 "http://www.w3.org/TR/2001/REC-SVG-20010904/DTD/svg10.dtd">
<svg version="1.0" xmlns="http://www.w3.org/2000/svg"
 width="302.000000pt" height="167.000000pt" viewBox="0 0 302.000000 167.000000"
 preserveAspectRatio="xMidYMid meet">

<g transform="translate(0.000000,167.000000) scale(0.100000,-0.100000)"
fill="#000000" stroke="none">
<path d="M350 846 l0 -254 55 -4 55 -3 0 258 0 257 -55 0 -55 0 0 -254z"/>
<path d="M645 1088 c-2 -7 -6 -31 -10 -53 -12 -71 -50 -129 -123 -186 l-33
-25 86 -116 85 -116 70 -4 c39 -2 70 -1 70 1 0 2 -34 52 -76 109 l-75 105 21
26 c41 51 84 154 88 213 l4 58 -51 0 c-33 0 -53 -5 -56 -12z"/>
<path d="M837 1093 c-4 -3 -7 -118 -7 -254 l0 -247 55 -4 55 -3 0 258 0 257
-48 0 c-27 0 -52 -3 -55 -7z"/>
<path d="M1120 938 c-82 -23 -130 -90 -130 -178 0 -28 5 -61 11 -73 17 -33 60
-77 92 -93 35 -19 108 -20 149 -3 18 7 33 9 35 3 2 -5 25 -7 53 -6 l50 4 0
174 0 174 -49 0 c-27 0 -51 -4 -53 -10 -2 -6 -19 -4 -43 5 -46 16 -67 17 -115
3z m116 -103 c34 -23 49 -69 34 -105 -22 -53 -85 -74 -139 -45 -56 28 -58 123
-4 154 26 15 85 13 109 -4z"/>
<path d="M1866 940 c-15 -5 -37 -17 -47 -26 -18 -16 -19 -16 -19 4 0 20 -5 22
-50 22 l-50 0 0 -175 0 -175 50 0 50 0 0 95 c0 109 15 151 57 161 36 9 75 -6
90 -36 8 -15 13 -65 13 -127 l0 -103 50 0 50 0 0 133 c0 143 -10 177 -62 211
-30 19 -95 28 -132 16z"/>
<path d="M2226 935 c-75 -27 -126 -97 -126 -172 0 -47 29 -110 63 -142 37 -33
110 -51 162 -38 22 5 68 9 103 8 l62 -2 0 175 0 176 -49 0 c-27 0 -51 -4 -53
-10 -2 -6 -19 -4 -43 5 -50 18 -70 18 -119 0z m135 -114 c56 -57 25 -137 -58
-148 -37 -5 -45 -2 -73 25 -42 42 -42 90 1 126 43 36 91 35 130 -3z"/>
<path d="M1440 765 l0 -175 53 0 52 0 0 94 c0 105 12 129 69 144 29 8 31 11
34 60 3 60 -3 63 -63 32 -22 -11 -41 -20 -42 -20 -2 0 -3 9 -3 20 0 17 -7 20
-50 20 l-50 0 0 -175z"/>
<path d="M2562 687 c-12 -13 -22 -33 -22 -45 0 -31 35 -62 68 -62 57 0 83 69
42 110 -27 27 -62 25 -88 -3z"/>
</g>
</svg>
