<svg version="1.1" xmlns="http://www.w3.org/2000/svg" xmlns:xlink="http://www.w3.org/1999/xlink" width="512.000000pt" height="512.000000pt" viewBox="0,0,256,256"><g fill="#ffffff" fill-rule="nonzero" stroke="none" stroke-width="1" stroke-linecap="butt" stroke-linejoin="miter" stroke-miterlimit="10" stroke-dasharray="" stroke-dashoffset="0" font-family="none" font-weight="none" font-size="none" text-anchor="none" style="mix-blend-mode: normal"><g transform="translate(0.1125,0.05721) scale(0.5,0.5)"><g transform="translate(0,512) scale(0.1,-0.1)"><path d="M2960,5102c-68,-34 -102,-132 -68,-195c6,-12 58,-74 116,-137c506,-556 787,-1201 853,-1955c14,-162 6,-508 -16,-670c-92,-684 -371,-1282 -837,-1795c-121,-133 -128,-144 -128,-200c0,-98 80,-163 177,-145c43,8 116,74 246,224c472,547 755,1190 849,1931c18,141 18,659 0,800c-101,795 -428,1496 -957,2049c-107,112 -158,132 -235,93z"></path><path d="M2334,4469c-41,-12 -91,-69 -99,-113c-11,-56 12,-103 91,-187c352,-377 566,-845 624,-1364c13,-116 13,-374 0,-490c-58,-518 -273,-988 -625,-1364c-86,-92 -105,-137 -86,-200c15,-50 68,-97 120,-106c78,-13 141,37 319,253c304,371 510,860 567,1349c19,163 19,462 0,624c-57,492 -264,983 -568,1352c-195,237 -247,274 -343,246z"></path><path d="M1663,3810c-55,-33 -81,-91 -69,-156c5,-24 29,-60 76,-114c154,-174 245,-330 309,-528c58,-177 66,-232 66,-452c0,-220 -8,-275 -66,-452c-64,-198 -155,-354 -309,-528c-46,-53 -71,-90 -75,-114c-18,-96 48,-176 145,-176c56,0 87,18 153,89c212,229 358,516 429,841c20,93 22,133 22,340c0,207 -2,247 -22,340c-68,311 -211,597 -412,821c-35,39 -77,80 -94,90c-41,25 -112,25 -153,-1z"></path><path d="M1022,3170c-45,-28 -72,-76 -72,-131c0,-48 0,-49 92,-168c150,-197 135,-477 -36,-669c-46,-51 -56,-74 -56,-124c0,-111 121,-184 217,-130c68,37 174,185 222,311c39,100 54,185 54,301c0,116 -15,201 -54,301c-48,126 -154,274 -222,312c-42,23 -104,22 -145,-3z"></path></g></g></g></svg>