<svg version="1.1" xmlns="http://www.w3.org/2000/svg" xmlns:xlink="http://www.w3.org/1999/xlink" width="512.000000pt" height="512.000000pt" viewBox="0,0,256,256"><g fill="#ffffff" fill-rule="nonzero" stroke="none" stroke-width="1" stroke-linecap="butt" stroke-linejoin="miter" stroke-miterlimit="10" stroke-dasharray="" stroke-dashoffset="0" font-family="none" font-weight="none" font-size="none" text-anchor="none" style="mix-blend-mode: normal"><g transform="translate(0.01304,0.06615) scale(0.5,0.5)"><g transform="translate(0,512) scale(0.1,-0.1)"><path d="M3215,3379c-344,-42 -577,-264 -563,-537c8,-176 106,-287 368,-423c60,-31 125,-74 152,-100c44,-42 48,-49 48,-93c0,-43 -5,-53 -38,-86c-48,-48 -119,-70 -228,-70c-108,0 -215,21 -319,63l-84,34l-5,-26c-3,-14 -19,-89 -36,-165c-16,-77 -30,-145 -30,-151c0,-14 119,-51 233,-72c109,-20 339,-20 438,0c281,57 451,207 497,440c28,145 -9,266 -114,370c-51,50 -112,90 -294,191c-107,60 -160,112 -160,159c0,134 261,181 510,91c36,-13 67,-20 71,-16c6,7 69,299 69,320c0,11 -92,41 -185,61c-78,15 -242,21 -330,10z"></path><path d="M7,3338c-4,-12 -5,-23 -4,-24c1,0 59,-17 129,-37c163,-46 273,-92 316,-132c41,-37 42,-39 243,-822l144,-563h220h220l327,783c180,430 330,790 334,800c6,16 -7,17 -211,15l-217,-3l-211,-537c-117,-295 -215,-533 -218,-530c-3,4 -45,216 -93,472c-99,527 -100,530 -188,574l-52,26h-367h-367z"></path><path d="M2120,3355c0,-6 -328,-1538 -337,-1573l-5,-22l208,2l208,3l168,780c92,429 167,788 168,798c0,16 -16,17 -205,17c-113,0 -205,-2 -205,-5z"></path><path d="M4372,3349c-81,-24 -84,-30 -415,-822c-169,-406 -311,-745 -314,-753c-5,-12 24,-14 212,-12l218,3l41,115l41,115l266,3l266,2l25,-117l24,-118l193,-3c180,-2 192,-1 187,15c-2,10 -78,370 -167,801l-163,782l-191,-1c-104,0 -205,-5 -223,-10zM4452,2332c-91,-1 -167,-1 -169,1c-2,2 40,123 93,268c53,145 101,277 107,294c9,26 18,-4 72,-265l62,-295z"></path></g></g></g></svg>